<mxfile host="app.diagrams.net" modified="2021-03-29T14:25:54.733Z" agent="5.0 (Windows NT 10.0; Win64; x64) AppleWebKit/537.36 (KHTML, like Gecko) Chrome/89.0.4389.82 Safari/537.36" etag="hKX5pRle9ljT3hlPmDiS" version="14.4.3" type="github" pages="2">
  <diagram id="hRWSOsB_Q39CglmlqJvV" name="Page-1">
    <mxGraphModel dx="1414" dy="723" grid="1" gridSize="10" guides="1" tooltips="1" connect="1" arrows="1" fold="1" page="1" pageScale="1" pageWidth="850" pageHeight="1100" math="0" shadow="0">
      <root>
        <mxCell id="0" />
        <mxCell id="1" parent="0" />
        <mxCell id="yUbc9Q3TDWnVAXaD9efE-5" style="edgeStyle=orthogonalEdgeStyle;rounded=0;orthogonalLoop=1;jettySize=auto;html=1;exitX=0.5;exitY=1;exitDx=0;exitDy=0;" edge="1" parent="1" source="yUbc9Q3TDWnVAXaD9efE-1" target="yUbc9Q3TDWnVAXaD9efE-2">
          <mxGeometry relative="1" as="geometry" />
        </mxCell>
        <mxCell id="yUbc9Q3TDWnVAXaD9efE-6" style="edgeStyle=orthogonalEdgeStyle;rounded=0;orthogonalLoop=1;jettySize=auto;html=1;exitX=0.5;exitY=1;exitDx=0;exitDy=0;entryX=0.5;entryY=0;entryDx=0;entryDy=0;" edge="1" parent="1" source="yUbc9Q3TDWnVAXaD9efE-1" target="yUbc9Q3TDWnVAXaD9efE-3">
          <mxGeometry relative="1" as="geometry" />
        </mxCell>
        <mxCell id="yUbc9Q3TDWnVAXaD9efE-7" style="edgeStyle=orthogonalEdgeStyle;rounded=0;orthogonalLoop=1;jettySize=auto;html=1;exitX=0.5;exitY=1;exitDx=0;exitDy=0;entryX=0.5;entryY=0;entryDx=0;entryDy=0;" edge="1" parent="1" source="yUbc9Q3TDWnVAXaD9efE-1" target="yUbc9Q3TDWnVAXaD9efE-4">
          <mxGeometry relative="1" as="geometry" />
        </mxCell>
        <mxCell id="yUbc9Q3TDWnVAXaD9efE-1" value="Strafford County Database" style="rounded=1;whiteSpace=wrap;html=1;" vertex="1" parent="1">
          <mxGeometry x="300" y="100" width="120" height="60" as="geometry" />
        </mxCell>
        <mxCell id="yUbc9Q3TDWnVAXaD9efE-2" value="House of Corrections" style="ellipse;whiteSpace=wrap;html=1;" vertex="1" parent="1">
          <mxGeometry x="130" y="210" width="120" height="80" as="geometry" />
        </mxCell>
        <mxCell id="yUbc9Q3TDWnVAXaD9efE-3" value="Riverside Nursing Home" style="ellipse;whiteSpace=wrap;html=1;" vertex="1" parent="1">
          <mxGeometry x="300" y="210" width="120" height="80" as="geometry" />
        </mxCell>
        <mxCell id="yUbc9Q3TDWnVAXaD9efE-4" value="Sheriff&#39;s Office" style="ellipse;whiteSpace=wrap;html=1;" vertex="1" parent="1">
          <mxGeometry x="460" y="210" width="120" height="80" as="geometry" />
        </mxCell>
      </root>
    </mxGraphModel>
  </diagram>
  <diagram id="4rTR6dwHLFd0eTiVUdHH" name="Page-2">
    <mxGraphModel dx="1414" dy="723" grid="1" gridSize="10" guides="1" tooltips="1" connect="1" arrows="1" fold="1" page="1" pageScale="1" pageWidth="850" pageHeight="1100" math="0" shadow="0">
      <root>
        <mxCell id="y0u34wwcJl4Ad08UDgYy-0" />
        <mxCell id="y0u34wwcJl4Ad08UDgYy-1" parent="y0u34wwcJl4Ad08UDgYy-0" />
      </root>
    </mxGraphModel>
  </diagram>
</mxfile>
